<svg width="250" height="250" viewBox="0 0 250 250" fill="none" xmlns="http://www.w3.org/2000/svg">
<g clip-path="url(#clip0_18_98)">
<circle cx="4" cy="125" r="35" fill="#FE7F2F"/>
<path d="M490 125L186.305 147.901C186.759 140.013 187 131.853 187 123.5C187 116.205 186.816 109.058 186.468 102.11L490 125Z" fill="#FE7F2F"/>
<path d="M500 125L186.794 136.809C186.929 132.437 187 127.996 187 123.5C187 120.029 186.956 116.592 186.875 113.193L500 125Z" fill="#FFCC33"/>
<path d="M490 125L186.938 130.713C186.977 128.326 187 125.921 187 123.5C187 122.09 186.99 120.686 186.977 119.287L490 125Z" fill="#9AB5FF"/>
<path d="M119.778 178.988C121.449 190.523 123.624 201.022 126.203 210.135L37.0664 148.037C38.3892 146.138 39.5464 144.129 40.5244 142.031L119.778 178.988ZM116.53 144.857C116.9 152.241 117.458 159.4 118.188 166.271L41.9004 138.698C42.6869 136.522 43.2844 134.282 43.6865 132.004L116.53 144.857ZM116.082 115.148C116.029 117.908 116 120.693 116 123.5C116 127.206 116.05 130.874 116.142 134.497L44.0908 128.396C44.2858 126.094 44.2823 123.779 44.0801 121.478L116.082 115.148ZM117.899 83.5439C117.225 90.4118 116.72 97.5522 116.4 104.905L43.6709 117.908C43.2637 115.63 42.6606 113.391 41.8691 111.217L117.899 83.5439ZM125.335 40.04C122.93 49.1599 120.915 59.5405 119.379 70.8643L40.4834 107.882C39.5005 105.787 38.339 103.78 37.0117 101.885L125.335 40.04Z" fill="#FE7F2F"/>
<ellipse cx="152" cy="125.5" rx="28" ry="100.5" fill="#305CDE"/>
</g>
<defs>
<clipPath id="clip0_18_98">
<rect width="250" height="250" fill="white"/>
</clipPath>
</defs>
</svg>
